<svg xmlns="http://www.w3.org/2000/svg" width="64" height="64" viewBox="0 0 64 64"><path d="M6 18 L10 13 H25 L30 18 H54 L58 22 V30 H6 Z" fill="none" stroke="#0096A8" stroke-opacity=".22" stroke-width="6" stroke-linejoin="round" stroke-linecap="round"/><path d="M6 18 L10 13 H25 L30 18 H54 L58 22 V30 H6 Z" fill="#050A0E" stroke="#0096A8" stroke-width="2" stroke-linejoin="round" stroke-linecap="round"/><path d="M6 26 H58 V50 L53 55 H11 L6 50 Z" fill="none" stroke="#00F5FF" stroke-opacity=".22" stroke-width="6.5" stroke-linejoin="round" stroke-linecap="round"/><path d="M6 26 H58 V50 L53 55 H11 L6 50 Z" fill="#0A141E" stroke="#00F5FF" stroke-width="2.5" stroke-linejoin="round" stroke-linecap="round"/><path d="M12 30 H52" fill="none" stroke="#00F5FF" stroke-width="1.2" stroke-opacity="0.55" stroke-linejoin="round" stroke-linecap="round"/><circle cx="32" cy="41" r="8" fill="none" stroke="#00F5FF" stroke-width="2" stroke-opacity="1"/><path d="M24 41 H40 M32 33 C27.5 37 27.5 45 32 49 M32 33 C36.5 37 36.5 45 32 49" fill="none" stroke="#00F5FF" stroke-width="2" stroke-opacity="1" stroke-linejoin="round" stroke-linecap="round"/></svg>
