<svg xmlns="http://www.w3.org/2000/svg" width="64" height="64" viewBox="0 0 64 64"><path d="M13 6 H40 L52 18 V58 H13 Z" fill="none" stroke="#00F5FF" stroke-opacity=".22" stroke-width="6.5" stroke-linejoin="round" stroke-linecap="round"/><path d="M13 6 H40 L52 18 V58 H13 Z" fill="#0A141E" stroke="#00F5FF" stroke-width="2.5" stroke-linejoin="round" stroke-linecap="round"/><path d="M40 6 V18 H52" fill="none" stroke="#00F5FF" stroke-width="2" stroke-opacity="1" stroke-linejoin="round" stroke-linecap="round"/><path d="M18 12 H33 M18 16 H30" fill="none" stroke="#00F5FF" stroke-width="1.6" stroke-opacity="0.8" stroke-linejoin="round" stroke-linecap="round"/><path d="M24.10 40.25 L24.10 29.75 L27.60 35.00 L31.10 29.75 L31.10 40.25 M33.90 29.75 L39.15 29.75 L40.90 31.50 L40.90 38.50 L39.15 40.25 L33.90 40.25 L33.90 29.75" fill="none" stroke="#00F5FF" stroke-width="4.5" stroke-opacity="0.18" stroke-linejoin="round" stroke-linecap="round"/><path d="M24.10 40.25 L24.10 29.75 L27.60 35.00 L31.10 29.75 L31.10 40.25 M33.90 29.75 L39.15 29.75 L40.90 31.50 L40.90 38.50 L39.15 40.25 L33.90 40.25 L33.90 29.75" fill="none" stroke="#00F5FF" stroke-width="2" stroke-opacity="1" stroke-linejoin="round" stroke-linecap="round"/><path d="M17 50 H48 V54 H17 Z" fill="#00F5FF" fill-opacity=".85"/></svg>
