<svg xmlns="http://www.w3.org/2000/svg" width="512" height="512" viewBox="0 0 512 512"><path d="M236.38 -13.29 A270 270 0 0 1 256.00 -14.00" fill="none" stroke="#FF9500" stroke-width="5" stroke-opacity="1.000"/><path d="M216.87 -11.15 A270 270 0 0 1 236.38 -13.29" fill="none" stroke="#FF9500" stroke-width="5" stroke-opacity="0.934"/><path d="M197.56 -7.60 A270 270 0 0 1 216.87 -11.15" fill="none" stroke="#FF9500" stroke-width="5" stroke-opacity="0.870"/><path d="M178.56 -2.66 A270 270 0 0 1 197.56 -7.60" fill="none" stroke="#FF9500" stroke-width="5" stroke-opacity="0.808"/><path d="M159.97 3.65 A270 270 0 0 1 178.56 -2.66" fill="none" stroke="#FF9500" stroke-width="5" stroke-opacity="0.747"/><path d="M141.89 11.30 A270 270 0 0 1 159.97 3.65" fill="none" stroke="#FF9500" stroke-width="5" stroke-opacity="0.688"/><path d="M124.42 20.23 A270 270 0 0 1 141.89 11.30" fill="none" stroke="#FF9500" stroke-width="5" stroke-opacity="0.631"/><path d="M107.63 30.42 A270 270 0 0 1 124.42 20.23" fill="none" stroke="#FF9500" stroke-width="5" stroke-opacity="0.576"/><path d="M91.63 41.79 A270 270 0 0 1 107.63 30.42" fill="none" stroke="#FF9500" stroke-width="5" stroke-opacity="0.523"/><path d="M76.51 54.30 A270 270 0 0 1 91.63 41.79" fill="none" stroke="#FF9500" stroke-width="5" stroke-opacity="0.471"/><path d="M62.32 67.88 A270 270 0 0 1 76.51 54.30" fill="none" stroke="#FF9500" stroke-width="5" stroke-opacity="0.422"/><path d="M49.17 82.45 A270 270 0 0 1 62.32 67.88" fill="none" stroke="#FF9500" stroke-width="5" stroke-opacity="0.375"/><path d="M37.10 97.93 A270 270 0 0 1 49.17 82.45" fill="none" stroke="#FF9500" stroke-width="5" stroke-opacity="0.330"/><path d="M26.20 114.26 A270 270 0 0 1 37.10 97.93" fill="none" stroke="#FF9500" stroke-width="5" stroke-opacity="0.287"/><path d="M16.51 131.33 A270 270 0 0 1 26.20 114.26" fill="none" stroke="#FF9500" stroke-width="5" stroke-opacity="0.246"/><path d="M8.08 149.06 A270 270 0 0 1 16.51 131.33" fill="none" stroke="#FF9500" stroke-width="5" stroke-opacity="0.208"/><path d="M0.97 167.35 A270 270 0 0 1 8.08 149.06" fill="none" stroke="#FF9500" stroke-width="5" stroke-opacity="0.172"/><path d="M-4.80 186.12 A270 270 0 0 1 0.97 167.35" fill="none" stroke="#FF9500" stroke-width="5" stroke-opacity="0.139"/><path d="M-9.19 205.25 A270 270 0 0 1 -4.80 186.12" fill="none" stroke="#FF9500" stroke-width="5" stroke-opacity="0.109"/><path d="M-12.17 224.65 A270 270 0 0 1 -9.19 205.25" fill="none" stroke="#FF9500" stroke-width="5" stroke-opacity="0.081"/><path d="M-13.74 244.22 A270 270 0 0 1 -12.17 224.65" fill="none" stroke="#FF9500" stroke-width="5" stroke-opacity="0.057"/><path d="M-13.89 263.85 A270 270 0 0 1 -13.74 244.22" fill="none" stroke="#FF9500" stroke-width="5" stroke-opacity="0.036"/><path d="M-12.60 283.44 A270 270 0 0 1 -13.89 263.85" fill="none" stroke="#FF9500" stroke-width="5" stroke-opacity="0.019"/><path d="M-9.90 302.89 A270 270 0 0 1 -12.60 283.44" fill="none" stroke="#FF9500" stroke-width="5" stroke-opacity="0.006"/><circle cx="256" cy="-14" r="7" fill="#FF9500"/><circle cx="256" cy="-14" r="14" fill="#FF5A00" fill-opacity=".25"/></svg>
