<svg xmlns="http://www.w3.org/2000/svg" width="32" height="32" viewBox="0 0 32 32"><path d="M11 15 V8.5" fill="none" stroke="#003848" stroke-width="8.600000000000001" stroke-linecap="round" stroke-linejoin="round"/><path d="M14.6 14 V6.5" fill="none" stroke="#003848" stroke-width="8.600000000000001" stroke-linecap="round" stroke-linejoin="round"/><path d="M18.2 14 V7" fill="none" stroke="#003848" stroke-width="8.600000000000001" stroke-linecap="round" stroke-linejoin="round"/><path d="M21.8 15 V9.5" fill="none" stroke="#003848" stroke-width="8.600000000000001" stroke-linecap="round" stroke-linejoin="round"/><path d="M7.5 18.5 L10 21.5" fill="none" stroke="#003848" stroke-width="8.600000000000001" stroke-linecap="round" stroke-linejoin="round"/><path d="M9 15 H24 V21 C24 25.5 21.5 28 18 28 H15 C12.5 28 11 26.5 9.5 24.5 L6.5 19.5 Z" fill="#003848" stroke="#003848" stroke-width="5.4" stroke-linejoin="round"/><path d="M11 15 V8.5" fill="none" stroke="#00F5FF" stroke-width="6.0" stroke-linecap="round" stroke-linejoin="round"/><path d="M14.6 14 V6.5" fill="none" stroke="#00F5FF" stroke-width="6.0" stroke-linecap="round" stroke-linejoin="round"/><path d="M18.2 14 V7" fill="none" stroke="#00F5FF" stroke-width="6.0" stroke-linecap="round" stroke-linejoin="round"/><path d="M21.8 15 V9.5" fill="none" stroke="#00F5FF" stroke-width="6.0" stroke-linecap="round" stroke-linejoin="round"/><path d="M7.5 18.5 L10 21.5" fill="none" stroke="#00F5FF" stroke-width="6.0" stroke-linecap="round" stroke-linejoin="round"/><path d="M9 15 H24 V21 C24 25.5 21.5 28 18 28 H15 C12.5 28 11 26.5 9.5 24.5 L6.5 19.5 Z" fill="#00F5FF" stroke="#00F5FF" stroke-width="2.8" stroke-linejoin="round"/><path d="M11 15 V8.5" fill="none" stroke="#0A141E" stroke-width="3.2" stroke-linecap="round" stroke-linejoin="round"/><path d="M14.6 14 V6.5" fill="none" stroke="#0A141E" stroke-width="3.2" stroke-linecap="round" stroke-linejoin="round"/><path d="M18.2 14 V7" fill="none" stroke="#0A141E" stroke-width="3.2" stroke-linecap="round" stroke-linejoin="round"/><path d="M21.8 15 V9.5" fill="none" stroke="#0A141E" stroke-width="3.2" stroke-linecap="round" stroke-linejoin="round"/><path d="M7.5 18.5 L10 21.5" fill="none" stroke="#0A141E" stroke-width="3.2" stroke-linecap="round" stroke-linejoin="round"/><path d="M9 15 H24 V21 C24 25.5 21.5 28 18 28 H15 C12.5 28 11 26.5 9.5 24.5 L6.5 19.5 Z" fill="#0A141E" stroke="none" stroke-linejoin="round"/></svg>
